<?xml version="1.0" ?><svg fill="none" height="40" viewBox="0 0 40 40" width="40" xmlns="http://www.w3.org/2000/svg"><path d="M17.0002 32C16.5408 31.0811 17.209 30 18.2363 30H21.7642C22.7915 30 23.4597 31.0811 23.0002 32H17.0002Z" fill="black"/><path clip-rule="evenodd" d="M8.86584 0.447266L7.13379 1.44727L10.5535 7.37044C8.79874 9.43443 7.707 12.0836 7.61312 14.9938L7.57342 16.2246C7.33977 16.159 7.06822 16.1457 6.67563 16.1265C6.48079 16.1169 6.32103 16.1348 6.18186 16.1855C5.74191 16.3454 5.40189 16.7017 5.26251 17.1486C5.12589 17.5866 5.31219 18.2076 5.68478 19.4496L7.00628 23.8546C7.21285 24.5432 7.31614 24.8874 7.56286 25.0828C7.64269 25.146 7.73171 25.1966 7.82683 25.2329C7.98 25.2914 8.14804 25.2957 8.37251 25.2618L8.59039 26.9504C8.9813 29.9799 9.17675 31.4947 9.97306 32.6738C10.234 33.0601 10.539 33.4147 10.8821 33.7304C11.9289 34.694 13.3975 35.1136 16.3346 35.9527L17.033 36.1523C18.3421 36.5263 18.9966 36.7133 19.6662 36.7506C19.8886 36.763 20.1115 36.763 20.3338 36.7506C21.0035 36.7133 21.658 36.5263 22.967 36.1523L23.6654 35.9527C24.8414 35.6168 25.782 35.348 26.5544 35.0847L29.1338 39.5524L30.8658 38.5524L8.86584 0.447266ZM25.5332 33.3159L22.5782 28.1978C22.5504 28.2051 22.5219 28.2124 22.4928 28.2197C21.9159 28.3639 21.0845 28.4995 20.0002 28.4995C18.916 28.4995 18.0846 28.3639 17.5077 28.2197C17.2196 28.1477 16.9958 28.0737 16.8366 28.014C16.757 27.9841 16.6935 27.9579 16.6463 27.9372C16.6226 27.9268 16.603 27.9179 16.5875 27.9106L16.5672 27.901L16.5594 27.8971L16.556 27.8955L16.5545 27.8947L16.553 27.894C16.059 27.647 15.8588 27.0463 16.1058 26.5523C16.3511 26.0618 16.9444 25.8605 17.4364 26.0997L17.4479 26.1049C17.4631 26.1115 17.4934 26.1243 17.5388 26.1413C17.6296 26.1754 17.7809 26.2264 17.9928 26.2794C18.4159 26.3852 19.0845 26.4995 20.0002 26.4995C20.6241 26.4995 21.1333 26.4465 21.5282 26.3792L18.4228 21.0003H12.2502L12.2272 20.9543C11.9283 20.3567 11.7789 20.0579 11.8189 19.6308C11.829 19.5228 11.8754 19.3267 11.9149 19.2256C12.0707 18.826 12.2699 18.6771 12.6683 18.3793C13.4226 17.8154 14.5512 17.1984 16.0798 16.9423L11.6286 9.23248C11.6256 9.23659 11.6225 9.24071 11.6195 9.24482C11.716 10.2367 11.8584 11.674 12 13C12.1028 13.9634 11.5321 14.8342 10.7437 15.3973L9.5742 16.2327L9.55566 16.8076C9.55078 16.9588 9.54867 17.0246 9.54705 17.0896C9.52533 17.9641 9.5674 18.8391 9.67291 19.7075C9.68076 19.7721 9.68916 19.8373 9.70853 19.9874L10.5739 26.6944C10.7738 28.243 10.9092 29.2791 11.0838 30.0799C11.2509 30.8464 11.4258 31.2514 11.6305 31.5544C11.8044 31.812 12.0078 32.0484 12.2365 32.2589C12.5055 32.5065 12.8798 32.74 13.6127 33.0197C14.3784 33.312 15.3827 33.6007 16.8841 34.0297L17.5825 34.2292C18.9752 34.6272 19.3823 34.7317 19.7775 34.7537C19.9257 34.762 20.0743 34.762 20.2225 34.7537C20.6177 34.7317 21.0248 34.6272 22.4176 34.2292L23.116 34.0297C24.1172 33.7436 24.8974 33.5199 25.5332 33.3159Z" fill="black" fill-rule="evenodd"/><path d="M20.895 17.2821L23.0419 21.0007H27.7499L27.7732 20.9542C28.072 20.3566 28.2213 20.0578 28.1814 19.6308C28.1712 19.5228 28.1248 19.3267 28.0854 19.2256C27.9295 18.826 27.7303 18.6771 27.332 18.3794C26.3478 17.6437 24.7266 16.8174 22.4107 16.8203C21.707 16.8212 21.3552 16.8216 21.0715 17.074C21.0106 17.1282 20.9453 17.2059 20.895 17.2821Z" fill="black"/><path d="M28.9162 30.0799C28.851 30.3792 28.7846 30.6233 28.7156 30.8278L29.892 32.8654C29.9382 32.8024 29.9832 32.7385 30.027 32.6738C30.8233 31.4947 31.0187 29.9799 31.4097 26.9504L31.6275 25.2618C31.852 25.2957 32.02 25.2914 32.1732 25.2329C32.2683 25.1966 32.3573 25.146 32.4371 25.0828C32.6839 24.8874 32.7872 24.5432 32.9937 23.8546L34.3152 19.4496C34.6878 18.2076 34.8741 17.5866 34.7375 17.1486C34.5981 16.7017 34.2581 16.3454 33.8182 16.1855C33.679 16.1348 33.5192 16.1169 33.3244 16.1265C32.9318 16.1457 32.6603 16.159 32.4266 16.2246L32.3869 14.9938C32.1713 8.30815 26.6891 3 20 3C17.6848 3 15.5142 3.63589 13.6565 4.7447L14.7153 6.57854C16.0079 6.17921 17.35 6.67956 18.7283 7.19342C19.799 7.59263 20.8917 8 22 8C23.8441 8 24.7773 7.34938 25.3424 6.47663C26.5292 7.18908 27.5628 8.13208 28.3806 9.24488C28.2842 10.2367 28.1418 11.6741 28.0002 13C27.8974 13.9634 28.4678 14.8342 29.2562 15.3973L30.4258 16.2328L30.4444 16.8084C30.4493 16.9591 30.4514 17.0247 30.453 17.0896C30.4747 17.9641 30.4326 18.8391 30.3271 19.7075C30.3193 19.7717 30.311 19.8365 30.2919 19.9847L29.4261 26.6944C29.2263 28.243 29.0908 29.2791 28.9162 30.0799Z" fill="black"/></svg>