<?xml version="1.0" standalone="no"?>
<!DOCTYPE svg PUBLIC "-//W3C//DTD SVG 20010904//EN"
 "http://www.w3.org/TR/2001/REC-SVG-20010904/DTD/svg10.dtd">
<svg version="1.0" xmlns="http://www.w3.org/2000/svg"
 width="2000.000000pt" height="2000.000000pt" viewBox="0 0 2000.000000 2000.000000"
 preserveAspectRatio="xMidYMid meet">

<g transform="translate(0.000000,2000.000000) scale(0.100000,-0.100000)"
fill="#000000" stroke="none">
<path d="M7194 18234 c4 -22 26 -112 72 -299 4 -16 8 -35 9 -41 2 -5 12 -46
23 -90 12 -43 23 -90 26 -104 5 -24 9 -43 21 -90 3 -11 7 -28 9 -37 2 -10 16
-63 30 -118 14 -55 27 -115 31 -132 3 -18 21 -92 40 -165 19 -73 36 -144 39
-158 3 -14 8 -38 11 -55 3 -16 19 -79 35 -140 16 -60 32 -126 35 -145 3 -19
13 -62 22 -95 8 -33 16 -64 17 -70 1 -5 5 -19 9 -30 6 -19 12 -49 24 -110 3
-16 11 -48 18 -70 8 -22 16 -51 18 -65 3 -14 12 -52 20 -85 9 -33 18 -71 21
-85 3 -14 7 -35 10 -47 4 -13 8 -31 10 -40 2 -10 16 -65 31 -122 14 -58 31
-125 36 -150 17 -83 20 -96 35 -146 8 -28 21 -82 29 -120 9 -39 18 -78 20 -87
3 -10 7 -26 9 -35 2 -10 11 -45 19 -78 9 -33 18 -71 21 -85 3 -14 7 -35 10
-47 4 -13 8 -33 11 -45 3 -13 18 -75 34 -138 17 -63 33 -130 36 -149 3 -19 21
-93 40 -165 19 -72 37 -144 40 -161 11 -56 15 -72 50 -208 19 -75 37 -151 40
-169 3 -18 14 -64 25 -103 11 -38 21 -81 24 -95 3 -14 8 -36 11 -50 3 -14 8
-36 11 -50 3 -14 18 -74 34 -135 16 -60 31 -121 34 -135 3 -14 7 -35 10 -47 4
-13 8 -33 11 -45 3 -13 18 -75 34 -138 17 -63 33 -127 36 -142 3 -16 7 -40 11
-55 7 -36 46 -177 49 -181 1 -2 38 6 81 17 44 11 90 22 104 25 14 3 36 7 50
10 14 3 39 9 55 12 65 14 65 12 34 130 -16 59 -31 122 -33 138 -3 17 -19 85
-36 150 -17 66 -32 131 -35 145 -2 14 -23 98 -45 186 -22 88 -43 170 -45 183
-3 12 -7 34 -11 49 -3 14 -14 58 -24 97 -11 39 -21 82 -24 96 -3 14 -7 35 -10
48 -4 12 -8 32 -11 45 -5 23 -55 228 -105 427 -16 63 -31 126 -34 140 -3 14
-7 35 -10 48 -4 12 -8 32 -11 45 -3 12 -18 74 -34 137 -17 63 -32 128 -35 143
-3 16 -21 90 -40 165 -19 75 -38 153 -41 172 -3 19 -19 85 -35 145 -16 61 -32
122 -35 138 -3 15 -7 39 -11 55 -3 15 -16 68 -29 117 -13 50 -26 101 -29 115
-3 14 -7 35 -10 48 -4 12 -8 32 -11 44 -6 27 -65 267 -110 448 -19 74 -37 151
-40 170 -3 19 -19 85 -35 146 -17 61 -34 130 -39 155 -14 67 -18 85 -50 209
-17 63 -33 130 -36 149 -3 18 -15 66 -26 106 -17 64 -39 158 -55 235 -3 14 -9
41 -14 60 -6 19 -10 41 -10 48 0 9 520 12 2565 12 l2565 0 -5 -32 c-3 -18 -12
-55 -20 -83 -13 -47 -17 -62 -30 -132 -3 -16 -14 -59 -24 -98 -22 -84 -62
-250 -68 -285 -2 -14 -7 -34 -10 -45 -4 -11 -8 -26 -9 -33 -4 -23 -45 -193
-65 -267 -10 -38 -21 -83 -24 -100 -13 -66 -17 -82 -32 -140 -8 -33 -17 -68
-19 -79 -2 -10 -13 -56 -24 -101 -11 -45 -23 -92 -25 -104 -3 -11 -7 -30 -10
-41 -6 -25 -11 -43 -25 -105 -6 -27 -14 -59 -16 -70 -3 -11 -7 -31 -10 -45 -3
-14 -13 -56 -24 -95 -11 -38 -21 -81 -24 -95 -3 -14 -8 -36 -11 -50 -3 -14 -8
-36 -11 -50 -3 -14 -10 -43 -16 -65 -11 -42 -16 -65 -24 -105 -3 -14 -12 -52
-21 -85 -8 -33 -17 -71 -19 -85 -3 -14 -7 -32 -10 -40 -3 -8 -8 -26 -10 -40
-3 -14 -11 -47 -19 -75 -8 -27 -17 -63 -20 -80 -3 -16 -8 -41 -11 -55 -2 -14
-11 -47 -19 -75 -8 -27 -17 -63 -20 -80 -3 -16 -8 -41 -11 -55 -3 -14 -14 -59
-24 -100 -10 -41 -31 -124 -45 -185 -15 -60 -28 -117 -31 -125 -2 -8 -10 -46
-19 -85 -8 -38 -19 -83 -25 -100 -5 -16 -12 -46 -15 -65 -3 -19 -12 -57 -20
-85 -8 -27 -16 -62 -19 -77 -4 -16 -8 -40 -12 -55 -3 -16 -12 -55 -21 -88 -8
-33 -17 -71 -20 -84 -2 -14 -6 -28 -8 -31 -2 -4 -7 -22 -10 -41 -3 -19 -11
-52 -16 -74 -6 -22 -13 -48 -14 -57 -2 -10 -6 -21 -8 -26 -3 -4 -8 -25 -11
-47 -4 -22 -15 -74 -26 -115 -15 -63 -35 -145 -56 -232 -2 -10 -6 -28 -10 -40
-3 -13 -7 -34 -10 -48 -3 -14 -10 -43 -16 -65 -5 -22 -12 -48 -14 -57 -2 -10
-6 -27 -9 -38 -3 -11 -8 -30 -11 -42 -12 -51 -15 -78 -7 -79 4 0 17 -3 28 -5
11 -3 29 -6 40 -9 11 -2 54 -13 95 -24 41 -11 89 -22 105 -25 17 -3 42 -8 58
-12 22 -4 27 -2 28 13 0 10 2 25 4 33 2 8 7 29 10 45 3 17 14 64 25 105 10 41
30 122 44 180 13 58 34 143 46 190 11 47 23 98 26 113 6 38 51 218 58 237 3 8
8 26 10 40 3 14 8 39 11 55 3 17 10 44 15 60 5 17 12 46 15 65 3 19 14 67 25
106 18 67 23 88 35 152 3 15 14 59 25 98 18 68 22 85 35 149 3 17 13 57 22 90
16 66 22 87 29 125 3 14 13 59 24 100 56 225 71 289 76 316 2 16 16 70 29 119
13 50 27 106 30 125 3 19 14 67 25 105 11 39 22 86 25 105 3 19 14 67 25 105
11 39 22 86 25 105 3 19 14 67 25 105 11 39 22 86 25 105 3 19 17 76 30 125
13 50 27 106 30 125 3 19 13 62 21 95 18 66 23 88 30 125 3 14 11 48 19 75 8
28 17 64 20 80 3 17 8 41 11 55 3 14 13 57 24 95 11 39 22 86 25 105 3 19 13
62 21 95 9 33 18 68 20 78 2 9 6 26 9 37 12 49 16 67 21 90 3 14 11 48 19 75
8 28 17 66 20 85 3 19 17 78 30 130 47 187 66 265 71 295 2 17 16 72 29 124
14 51 27 107 30 125 5 26 30 123 51 199 5 16 -144 17 -3031 17 l-3035 0 4 -26z"/>
<path d="M10117 12984 c-1 -1 -52 -4 -113 -8 -61 -4 -122 -9 -135 -11 -13 -3
-48 -7 -77 -11 -29 -3 -63 -7 -75 -10 -12 -2 -33 -6 -47 -9 -14 -2 -50 -9 -80
-15 -30 -6 -66 -14 -80 -16 -56 -11 -371 -111 -425 -135 -22 -10 -58 -25 -80
-34 -70 -30 -339 -166 -356 -181 -8 -8 -18 -14 -21 -14 -3 0 -36 -20 -74 -45
-38 -25 -78 -51 -88 -57 -32 -21 -186 -138 -219 -166 -91 -79 -132 -118 -238
-227 -109 -112 -177 -191 -240 -275 -59 -79 -147 -209 -179 -264 -19 -32 -48
-79 -63 -105 -27 -45 -104 -200 -134 -271 -8 -19 -18 -44 -23 -55 -19 -41 -51
-128 -74 -203 -44 -136 -65 -207 -70 -232 -3 -14 -7 -36 -10 -50 -8 -35 -25
-120 -31 -150 -3 -14 -8 -45 -11 -70 -3 -25 -8 -53 -10 -63 -26 -139 -26 -675
0 -814 2 -10 7 -38 10 -63 3 -25 8 -56 11 -70 7 -37 26 -132 31 -160 3 -14 8
-34 11 -45 4 -11 7 -22 8 -25 16 -79 114 -367 154 -455 48 -101 113 -234 134
-270 162 -286 310 -478 542 -706 162 -158 248 -230 417 -345 54 -36 95 -70 92
-76 -3 -5 0 -8 7 -7 16 2 47 -11 99 -42 39 -24 265 -138 320 -162 19 -8 56
-24 81 -35 26 -12 60 -24 75 -28 16 -4 34 -9 39 -13 6 -3 12 -6 15 -7 3 0 12
-3 20 -7 17 -7 129 -39 148 -43 7 -1 36 -9 65 -17 59 -18 123 -33 182 -43 22
-4 47 -8 55 -10 75 -14 90 -16 190 -29 201 -25 496 -25 705 0 50 6 129 17 145
20 8 1 31 5 50 9 19 3 46 8 60 11 14 3 45 10 70 15 110 23 315 85 408 122 28
11 57 22 95 37 12 4 42 18 67 29 25 11 70 32 100 46 49 22 126 63 230 123 102
58 285 187 401 283 80 66 320 306 376 375 26 33 50 62 53 65 24 22 210 284
210 296 0 4 6 15 14 23 17 20 59 96 128 233 47 94 63 128 100 218 6 14 14 33
19 42 5 10 9 23 9 28 0 6 9 30 20 54 10 24 31 85 45 137 35 125 63 229 63 232
0 1 3 20 7 42 4 22 9 47 10 55 4 24 27 173 30 200 26 196 26 545 1 740 -2 14
-7 48 -10 75 -4 28 -9 57 -11 65 -2 8 -6 31 -9 50 -8 52 -40 196 -51 230 -2 8
-16 57 -30 109 -14 51 -32 105 -39 120 -7 14 -16 39 -20 55 -6 26 -20 58 -67
162 -11 22 -19 43 -19 46 0 3 -36 75 -81 159 -81 154 -169 295 -251 400 -24
31 -54 71 -68 89 -67 89 -253 285 -361 379 -111 97 -117 102 -241 192 -62 45
-115 85 -118 88 -3 3 -10 7 -17 8 -6 1 -31 15 -55 31 -61 41 -180 107 -268
148 -41 19 -94 44 -116 55 -119 56 -433 156 -579 185 -11 2 -31 6 -45 9 -14 3
-40 8 -59 11 -18 3 -43 8 -55 10 -20 4 -57 9 -141 19 -104 13 -448 27 -458 19z
m308 -374 c677 -57 1291 -345 1750 -822 198 -205 341 -408 471 -663 136 -270
219 -529 266 -830 29 -188 32 -578 5 -760 -78 -527 -278 -977 -610 -1375 -782
-937 -2085 -1237 -3202 -737 -287 128 -556 315 -794 550 -220 218 -385 447
-521 722 -127 257 -198 472 -247 751 -26 149 -28 177 -28 444 0 298 6 367 50
575 89 416 277 811 547 1145 88 110 277 300 393 395 191 158 480 328 720 423
373 148 809 214 1200 182z"/>
<path d="M10166 12172 c-52 -71 -103 -184 -122 -271 -14 -63 -16 -108 -11
-281 4 -113 13 -297 21 -410 28 -389 38 -680 26 -811 -26 -302 -126 -647 -278
-962 -42 -87 -81 -162 -87 -167 -13 -11 -169 21 -210 42 -69 37 -124 129 -125
208 0 87 64 182 147 217 18 7 56 13 86 13 l53 0 -13 108 c-7 59 -36 296 -63
527 -28 231 -57 455 -66 498 -67 334 -274 659 -554 868 -73 54 -160 109 -173
109 -4 0 -6 -764 -5 -1697 l3 -1698 392 -3 391 -2 7 -33 c18 -85 72 -232 118
-321 86 -169 195 -301 357 -431 41 -34 90 -82 109 -107 l35 -46 27 37 c15 21
53 60 85 87 282 239 418 443 494 739 l18 70 391 3 391 2 0 1700 c0 935 -3
1700 -6 1700 -3 0 -38 -21 -77 -46 -323 -209 -550 -529 -637 -899 -11 -44 -46
-307 -79 -585 -33 -278 -63 -522 -66 -542 l-5 -38 57 0 c145 0 257 -140 223
-279 -14 -61 -55 -120 -103 -150 -30 -18 -215 -67 -222 -59 -1 2 -32 59 -68
128 -122 232 -230 554 -283 845 -27 142 -24 529 5 945 30 415 32 662 8 750
-22 81 -76 191 -121 248 l-34 42 -36 -48z m-1052 -912 c83 -123 143 -261 175
-404 19 -82 26 -134 81 -601 16 -143 32 -272 35 -287 4 -23 -2 -30 -39 -52
-79 -46 -167 -160 -200 -258 -4 -15 -17 -18 -71 -18 l-65 0 0 868 0 867 20
-25 c11 -14 40 -54 64 -90z m2266 -755 l0 -865 -68 0 -67 0 -18 49 c-24 69
-95 160 -158 206 -30 21 -58 41 -62 45 -11 9 88 824 113 926 26 109 70 221
123 314 41 73 123 190 132 190 3 0 5 -389 5 -865z m-1071 -1005 c18 -41 58
-125 90 -185 l58 -110 -68 -33 c-37 -17 -94 -56 -126 -86 l-58 -54 -54 50
c-29 27 -86 65 -125 85 -39 19 -72 36 -73 37 -2 1 28 63 66 137 67 129 129
274 166 388 l18 54 37 -104 c20 -57 51 -138 69 -179z m-1143 -117 c53 -160
183 -278 356 -322 84 -22 79 -10 54 -155 -9 -49 -16 -115 -16 -147 l0 -59
-265 0 -265 0 0 350 0 350 65 0 c54 0 67 -3 71 -17z m2214 -333 l0 -350 -264
0 -263 0 -7 88 c-4 48 -15 125 -25 170 l-18 82 41 10 c144 35 231 82 300 161
37 43 96 151 96 177 0 8 21 12 70 12 l70 0 0 -350z m-1418 -115 c62 -41 107
-115 122 -202 l6 -33 -150 0 -150 0 0 28 c0 46 29 221 40 242 10 18 13 18 53
4 23 -8 59 -26 79 -39z m632 -37 c9 -42 16 -104 16 -138 l0 -60 -146 0 -147 0
7 41 c14 86 76 173 151 211 49 26 88 37 97 29 3 -3 14 -41 22 -83z m-506 -680
c1 -154 -1 -238 -8 -238 -15 0 -95 105 -145 189 -40 68 -92 193 -109 264 l-7
28 133 -3 133 -3 3 -237z m497 230 c-58 -187 -98 -271 -185 -386 -34 -45 -65
-84 -71 -87 -5 -4 -9 88 -9 239 l0 246 135 0 c103 0 133 -3 130 -12z"/>
<path d="M1739 12616 c-1 -321 -7 -1113 -14 -2081 -3 -451 -8 -1155 -10 -1565
-3 -410 -7 -1070 -10 -1468 l-5 -724 27 6 c16 4 38 9 51 11 42 9 57 13 97 23
22 6 51 13 65 16 59 12 169 36 181 41 8 2 25 7 39 9 37 7 61 13 105 25 22 5
56 13 75 16 19 3 53 11 75 17 22 5 51 12 65 14 14 3 39 9 55 14 17 5 46 12 65
15 19 3 58 12 85 20 28 8 61 16 75 19 14 2 43 9 65 14 22 6 54 13 70 16 38 7
116 25 180 42 28 7 66 16 85 19 19 3 49 10 65 15 17 5 46 12 65 15 19 3 49 10
65 15 17 5 41 11 55 14 14 3 34 7 45 10 28 7 184 44 215 50 14 3 34 7 45 10
11 3 54 12 95 21 41 9 105 25 143 35 37 10 70 19 72 19 12 0 124 24 170 37 28
7 61 15 75 18 14 2 43 9 65 15 22 6 58 13 80 17 22 3 43 8 46 9 3 2 39 11 80
20 41 9 83 18 94 21 33 9 87 21 145 33 30 6 69 16 85 21 17 5 46 12 65 15 19
3 49 10 65 15 17 5 64 16 105 25 41 9 83 18 93 21 9 2 25 6 35 8 9 2 35 9 57
14 22 6 51 13 65 15 14 3 43 10 65 15 22 6 56 14 75 17 19 3 49 10 65 15 17 5
41 11 55 14 40 8 70 15 88 20 9 3 33 8 52 11 19 3 49 10 65 15 17 5 46 12 65
15 19 3 58 12 85 20 28 8 66 17 85 20 19 3 49 10 65 15 17 5 46 12 65 15 19 3
49 10 65 15 17 5 44 12 60 14 28 5 73 16 215 51 30 8 66 16 80 19 14 3 57 12
95 21 39 9 102 23 140 31 39 8 84 19 100 24 17 5 41 11 55 14 94 16 99 18 94
37 -10 47 -12 56 -22 94 -6 22 -13 51 -16 65 -14 72 -38 175 -41 178 -1 2 -20
-1 -41 -7 -22 -6 -55 -13 -74 -16 -19 -3 -48 -10 -65 -15 -16 -5 -41 -11 -55
-14 -14 -3 -68 -14 -120 -26 -52 -12 -115 -26 -140 -31 -25 -5 -58 -14 -75
-19 -16 -5 -46 -12 -65 -15 -19 -3 -48 -10 -65 -15 -16 -5 -41 -11 -55 -14
-38 -7 -61 -13 -105 -24 -22 -6 -51 -13 -65 -16 -64 -12 -178 -38 -210 -47
-53 -14 -281 -67 -315 -73 -16 -3 -73 -17 -126 -30 -53 -14 -116 -28 -140 -31
-24 -4 -50 -10 -59 -15 -8 -4 -31 -10 -50 -13 -19 -4 -42 -8 -50 -10 -8 -2
-26 -7 -40 -10 -14 -4 -37 -9 -52 -12 -66 -12 -85 -16 -113 -25 -16 -5 -46
-12 -65 -15 -19 -3 -53 -11 -75 -17 -22 -6 -53 -13 -70 -15 -16 -3 -37 -9 -45
-13 -8 -4 -35 -11 -60 -15 -25 -4 -67 -13 -95 -21 -27 -7 -61 -15 -75 -18 -14
-2 -43 -9 -65 -14 -22 -6 -56 -14 -75 -17 -19 -3 -48 -10 -65 -15 -16 -5 -46
-12 -65 -15 -19 -3 -48 -10 -65 -15 -16 -5 -46 -12 -65 -15 -19 -3 -48 -10
-65 -15 -16 -5 -46 -12 -65 -15 -19 -3 -57 -12 -85 -20 -27 -8 -61 -16 -75
-19 -14 -2 -43 -9 -65 -14 -22 -6 -52 -13 -67 -16 -15 -2 -65 -14 -110 -25
-46 -11 -99 -23 -118 -26 -19 -3 -57 -12 -85 -20 -48 -12 -170 -41 -211 -49
-10 -2 -46 -11 -79 -19 -33 -9 -71 -18 -85 -20 -14 -3 -43 -10 -65 -15 -22 -6
-56 -14 -75 -17 -19 -3 -51 -10 -70 -15 -19 -5 -64 -16 -100 -24 -208 -49
-319 -76 -341 -80 -38 -8 -61 -13 -104 -24 -22 -5 -55 -13 -74 -16 l-33 -6 6
953 c4 523 8 1251 11 1617 3 366 8 1090 11 1610 3 520 8 948 10 951 2 4 420
-98 929 -226 509 -128 925 -231 925 -229 0 2 12 -1 26 -7 15 -5 43 -12 63 -15
20 -3 43 -10 51 -14 8 -4 29 -11 45 -14 17 -3 48 -10 70 -16 22 -5 56 -13 75
-16 19 -3 38 -8 43 -11 4 -2 20 -6 35 -9 15 -2 38 -9 52 -14 14 -5 36 -12 50
-14 41 -8 72 -15 135 -31 33 -9 71 -18 85 -21 14 -3 43 -10 65 -16 22 -6 45
-13 50 -14 6 -2 24 -6 40 -9 17 -3 453 -112 970 -242 517 -129 965 -241 995
-248 30 -7 75 -19 100 -25 25 -6 53 -13 63 -15 10 -2 26 -7 36 -10 16 -5 34
53 76 240 2 11 10 39 16 63 6 23 10 44 8 46 -2 2 -296 76 -654 165 -357 89
-690 172 -740 186 -49 13 -124 32 -165 41 -41 9 -111 26 -155 39 -45 13 -94
25 -110 28 -17 3 -50 10 -75 17 -25 7 -52 14 -60 16 -8 2 -57 14 -107 28 -51
13 -93 22 -93 20 0 -3 -8 0 -17 5 -10 5 -31 11 -48 14 -16 3 -40 8 -52 11 -13
3 -33 9 -45 12 -28 6 -32 8 -84 22 -23 7 -62 16 -85 21 -24 5 -54 12 -66 15
-13 3 -32 8 -43 11 -11 3 -29 7 -40 10 -11 3 -29 7 -40 10 -49 12 -67 16 -90
21 -14 3 -34 8 -45 11 -30 10 -37 12 -75 19 -19 3 -43 10 -52 15 -10 5 -18 7
-18 5 0 -3 -11 -1 -25 4 -24 9 -38 13 -102 25 -16 3 -46 11 -68 17 -22 6 -44
13 -50 14 -22 6 -61 15 -85 20 -21 4 -68 17 -115 30 -5 2 -26 6 -45 10 -19 3
-43 10 -52 15 -10 5 -18 8 -18 6 0 -3 -159 35 -352 84 -194 49 -362 92 -373
94 -11 3 -137 34 -280 70 -143 36 -269 67 -280 70 -11 2 -81 20 -155 39 -74
19 -146 37 -160 40 -28 5 -26 5 -157 40 l-93 24 -1 -232z"/>
<path d="M18639 12708 c-35 -10 -82 -20 -103 -24 -22 -3 -47 -9 -56 -14 -8 -4
-31 -10 -50 -13 -19 -3 -45 -8 -57 -11 -13 -3 -31 -8 -41 -10 -9 -2 -35 -9
-57 -15 -22 -5 -56 -13 -75 -16 -19 -3 -48 -10 -65 -15 -16 -5 -41 -11 -55
-14 -23 -5 -59 -13 -85 -20 -5 -1 -46 -10 -90 -20 -44 -10 -102 -24 -130 -32
-27 -7 -61 -15 -75 -18 -38 -7 -61 -13 -105 -25 -22 -5 -56 -13 -75 -16 -19
-3 -57 -12 -85 -20 -27 -8 -66 -17 -85 -20 -19 -3 -57 -12 -85 -20 -27 -8 -66
-17 -85 -20 -19 -3 -57 -12 -85 -20 -27 -8 -61 -16 -75 -19 -14 -3 -53 -12
-87 -20 -34 -9 -77 -18 -95 -21 -18 -3 -55 -12 -83 -20 -27 -8 -63 -17 -80
-19 -27 -5 -96 -21 -255 -61 -30 -8 -66 -16 -80 -19 -41 -8 -71 -15 -88 -20
-9 -3 -28 -7 -42 -10 -14 -3 -35 -7 -47 -10 -13 -4 -31 -8 -41 -10 -9 -2 -35
-9 -57 -15 -22 -5 -56 -13 -75 -16 -19 -3 -57 -12 -85 -20 -27 -8 -66 -17 -85
-20 -19 -3 -48 -10 -65 -15 -16 -5 -41 -11 -55 -14 -14 -3 -35 -7 -47 -10 -13
-4 -31 -8 -41 -10 -9 -2 -35 -9 -57 -15 -22 -5 -56 -13 -75 -16 -19 -3 -57
-12 -85 -20 -27 -8 -62 -17 -77 -20 -16 -3 -40 -7 -55 -10 -16 -3 -41 -10 -58
-15 -16 -5 -48 -12 -70 -16 -22 -3 -47 -9 -55 -14 -8 -4 -31 -10 -50 -14 -19
-3 -45 -8 -57 -11 -13 -3 -32 -7 -44 -10 -11 -2 -28 -6 -37 -9 -9 -3 -28 -7
-42 -10 -14 -3 -35 -7 -47 -10 -13 -4 -31 -8 -41 -10 -9 -2 -35 -9 -57 -15
-22 -5 -56 -13 -75 -16 -19 -3 -57 -12 -85 -20 -27 -8 -66 -17 -85 -20 -19 -3
-57 -12 -85 -20 -27 -8 -66 -17 -85 -20 -19 -3 -57 -12 -85 -20 -27 -8 -66
-17 -85 -20 -19 -3 -57 -12 -85 -20 -27 -8 -61 -16 -75 -19 -37 -7 -59 -12
-125 -29 -33 -9 -71 -18 -85 -20 -14 -3 -43 -10 -65 -15 -22 -6 -51 -13 -65
-16 -39 -8 -62 -13 -105 -24 -22 -6 -53 -14 -70 -17 -16 -3 -37 -8 -45 -10 -8
-2 -21 -4 -28 -4 -15 -1 -11 -42 13 -125 8 -28 17 -64 20 -81 3 -16 7 -34 9
-40 5 -18 20 -90 21 -100 1 -15 54 -7 170 23 22 6 51 13 65 16 40 8 62 13 105
25 22 5 55 13 74 16 18 3 65 14 105 24 99 26 169 42 208 48 18 3 40 9 48 13
14 7 80 22 156 36 16 3 52 11 79 19 28 8 61 16 75 19 59 12 127 27 250 57 47
12 99 23 115 26 17 3 37 8 45 13 8 4 31 10 50 14 19 3 46 9 60 12 14 3 36 7
50 10 14 3 39 9 55 14 17 5 41 11 55 14 28 6 35 7 135 31 144 34 242 57 295
70 30 8 71 17 90 20 19 3 58 12 85 20 28 8 66 17 85 20 19 3 58 12 85 20 47
13 65 17 133 30 15 3 41 10 57 15 17 5 42 11 57 14 30 5 171 38 258 61 30 8
71 17 90 20 19 3 58 12 85 20 28 8 66 17 85 20 19 3 58 12 85 20 28 8 61 17
75 19 14 3 52 12 85 20 33 8 74 17 90 20 17 3 66 14 110 25 150 37 258 63 284
67 14 3 40 9 56 14 17 5 45 12 64 15 18 3 65 14 105 25 39 11 82 21 96 24 14
2 57 12 95 21 77 18 218 51 280 66 47 11 79 18 119 25 16 3 40 10 53 15 14 5
28 7 31 5 10 -6 8 -351 -15 -3556 -5 -564 -8 -1148 -8 -1297 l0 -273 -22 0
c-12 0 -91 18 -175 39 -84 22 -169 43 -188 46 -19 3 -129 30 -245 60 -115 30
-221 56 -235 59 -26 5 -57 12 -87 21 -10 2 -48 11 -86 19 -37 8 -100 24 -140
35 -39 11 -83 22 -97 25 -14 3 -50 12 -80 20 -52 14 -71 19 -137 31 -16 3 -35
8 -43 11 -8 3 -26 8 -40 10 -14 3 -119 29 -235 59 -115 30 -222 56 -237 59
-16 4 -40 8 -55 11 -16 3 -131 32 -258 65 -126 32 -241 61 -255 64 -23 5 -42
9 -90 21 -48 12 -67 16 -90 21 -34 7 -337 83 -375 94 -16 5 -41 11 -55 14 -14
2 -45 9 -70 15 -25 7 -56 14 -70 17 -14 3 -94 23 -179 45 -85 22 -172 44 -195
49 -22 4 -52 11 -66 15 -14 3 -36 8 -50 11 -14 3 -110 27 -215 54 -104 27
-202 51 -217 54 -16 4 -39 8 -53 11 -13 3 -149 37 -302 75 -153 39 -279 70
-280 70 -3 0 -20 -63 -27 -100 -3 -14 -7 -35 -10 -47 -4 -13 -8 -32 -11 -44
-2 -11 -7 -29 -10 -39 -3 -10 -8 -28 -10 -39 -7 -28 -12 -53 -17 -70 -2 -10
56 -29 222 -72 124 -32 241 -61 260 -64 19 -3 139 -32 265 -65 127 -32 241
-61 255 -64 14 -3 36 -8 50 -11 14 -3 36 -8 50 -11 14 -2 32 -7 40 -10 8 -3
26 -8 40 -10 14 -3 122 -30 240 -60 118 -30 228 -57 245 -60 16 -3 55 -12 85
-20 30 -8 66 -17 80 -20 14 -3 77 -19 140 -35 63 -17 144 -37 180 -45 36 -8
74 -17 85 -20 11 -3 31 -7 45 -10 13 -3 112 -27 218 -55 107 -27 205 -51 218
-53 13 -3 27 -7 32 -9 4 -3 27 -8 52 -12 25 -4 48 -9 52 -12 5 -2 21 -7 36 -9
15 -3 90 -21 167 -41 77 -19 145 -36 150 -37 6 -2 28 -8 50 -14 22 -6 51 -13
65 -16 51 -10 70 -15 78 -19 4 -3 24 -8 46 -11 21 -4 84 -18 140 -32 55 -15
117 -30 136 -34 19 -5 60 -15 92 -24 31 -8 67 -17 80 -20 22 -5 42 -9 88 -21
48 -12 67 -16 90 -21 14 -3 86 -21 160 -40 74 -19 153 -39 175 -44 22 -4 50
-11 63 -14 12 -3 31 -8 43 -11 11 -2 29 -7 39 -10 10 -3 28 -8 39 -10 12 -3
31 -7 44 -11 12 -3 32 -7 45 -10 13 -2 110 -27 215 -54 106 -27 203 -51 217
-54 14 -3 39 -8 55 -11 17 -3 64 -15 107 -26 42 -10 79 -19 81 -19 12 0 17
318 22 1335 4 600 8 1333 10 1630 2 297 7 1022 10 1610 4 589 9 1074 12 1078
3 5 2 98 -2 207 -9 226 2 209 -106 178z"/>
<path d="M8489 6724 c-2 -25 -13 -71 -44 -189 -32 -124 -37 -147 -50 -212 -3
-16 -19 -77 -35 -138 -16 -60 -32 -126 -35 -145 -3 -19 -19 -84 -35 -145 -16
-60 -31 -124 -34 -142 -4 -18 -10 -43 -16 -57 -5 -15 -8 -26 -5 -26 2 0 -7
-40 -21 -90 -13 -49 -26 -101 -28 -115 -3 -13 -7 -28 -9 -32 -3 -5 -8 -26 -11
-47 -4 -22 -17 -81 -31 -131 -13 -49 -26 -101 -29 -115 -3 -14 -8 -36 -11 -50
-3 -14 -8 -36 -11 -50 -3 -14 -16 -65 -29 -115 -13 -49 -26 -101 -29 -115 -10
-50 -16 -77 -42 -178 -26 -107 -32 -130 -40 -172 -3 -14 -8 -34 -11 -45 -4
-11 -8 -24 -9 -30 -1 -5 -9 -41 -19 -80 -9 -38 -18 -79 -20 -89 -3 -10 -9 -33
-15 -50 -5 -17 -12 -49 -16 -71 -3 -22 -10 -48 -15 -57 -5 -10 -8 -18 -5 -18
3 0 -6 -38 -19 -85 -13 -47 -21 -85 -19 -85 3 0 0 -8 -5 -17 -5 -10 -11 -31
-14 -48 -13 -68 -19 -94 -42 -180 -13 -49 -27 -104 -30 -122 -3 -18 -9 -43
-15 -57 -5 -15 -8 -26 -5 -26 2 0 -7 -40 -21 -90 -13 -49 -26 -100 -28 -112
-3 -13 -8 -34 -11 -48 -3 -14 -8 -36 -11 -50 -3 -14 -18 -74 -34 -135 -16 -60
-31 -123 -35 -140 -3 -16 -8 -41 -11 -55 -3 -14 -16 -65 -29 -115 -13 -49 -26
-101 -29 -115 -3 -14 -8 -36 -11 -50 -3 -14 -8 -36 -11 -50 -3 -14 -18 -74
-34 -135 -27 -103 -32 -123 -45 -192 -3 -16 -19 -80 -35 -143 -55 -222 -150
-616 -150 -624 0 -3 1364 -6 3030 -6 2869 0 3030 1 3030 18 0 9 -4 33 -10 52
-5 19 -12 51 -15 70 -3 19 -14 67 -25 105 -11 39 -22 84 -25 101 -3 18 -16 74
-30 125 -13 52 -27 108 -29 124 -5 29 -24 105 -71 295 -13 52 -27 107 -30 123
-14 70 -17 85 -30 132 -8 28 -17 62 -20 78 -3 15 -7 39 -10 55 -3 15 -14 59
-25 97 -11 39 -22 86 -25 105 -3 19 -14 67 -25 106 -11 40 -22 86 -25 104 -3
18 -14 64 -25 104 -11 39 -22 87 -25 106 -3 19 -17 76 -30 125 -13 50 -27 105
-30 124 -3 18 -14 65 -25 105 -11 39 -22 86 -25 105 -3 18 -14 65 -25 105 -11
39 -22 87 -25 106 -3 19 -12 58 -20 85 -8 28 -16 61 -19 75 -3 14 -8 36 -11
50 -3 14 -8 36 -11 50 -3 14 -13 57 -24 95 -11 39 -22 82 -25 98 -13 70 -17
85 -30 132 -8 28 -17 62 -20 78 -13 66 -17 85 -30 132 -8 28 -17 65 -20 84 -3
18 -14 65 -25 105 -11 39 -22 83 -25 99 -3 15 -7 39 -10 55 -3 15 -14 59 -25
97 -11 39 -22 82 -25 98 -12 64 -17 84 -35 151 -11 39 -22 87 -25 106 -3 19
-12 58 -20 85 -8 28 -17 62 -20 78 -3 15 -7 39 -10 55 -3 15 -12 50 -20 77 -8
28 -16 61 -19 75 -3 14 -7 35 -10 48 -4 12 -8 30 -10 40 -2 9 -13 53 -24 97
-11 44 -32 134 -47 200 -15 66 -36 152 -46 190 -10 39 -20 81 -23 95 -3 14 -7
34 -10 45 -3 11 -11 43 -17 70 -6 28 -15 54 -19 59 -5 5 -35 2 -72 -7 -35 -9
-78 -19 -97 -22 -42 -7 -172 -43 -178 -49 -2 -2 0 -21 6 -42 5 -22 13 -52 16
-69 3 -16 8 -41 11 -55 3 -14 13 -56 24 -95 11 -38 22 -82 25 -97 13 -71 17
-86 30 -133 14 -48 19 -73 32 -140 3 -16 8 -37 13 -45 4 -8 10 -31 14 -50 3
-19 9 -46 12 -60 3 -14 7 -36 10 -50 3 -14 11 -47 19 -75 8 -27 17 -66 20 -85
3 -19 17 -75 30 -125 13 -49 26 -101 29 -115 12 -59 31 -140 76 -320 11 -41
22 -91 25 -110 3 -19 14 -67 25 -106 10 -39 21 -83 24 -97 4 -15 8 -39 12 -54
3 -14 14 -58 24 -97 11 -39 22 -87 25 -106 3 -19 16 -75 29 -125 26 -103 64
-259 71 -293 3 -12 7 -31 10 -42 3 -11 7 -28 9 -38 2 -9 9 -35 15 -57 5 -22
13 -56 16 -75 3 -19 17 -75 30 -125 13 -49 27 -106 30 -125 3 -19 17 -75 30
-125 13 -49 26 -101 29 -115 3 -14 7 -35 10 -47 4 -13 8 -32 11 -44 2 -11 6
-28 9 -37 3 -9 7 -28 10 -42 7 -36 11 -53 41 -175 15 -60 29 -121 32 -134 2
-14 13 -56 23 -95 11 -39 22 -87 25 -106 3 -19 10 -49 15 -65 6 -17 17 -62 26
-100 8 -39 16 -74 18 -80 1 -5 23 -100 49 -210 27 -110 59 -245 72 -300 33
-136 55 -233 55 -240 0 -7 -5125 -6 -5133 1 -3 4 -2 14 2 23 5 9 12 34 15 56
7 42 40 178 56 230 5 17 12 48 16 70 3 22 8 43 11 48 2 4 7 20 9 35 3 15 16
70 29 122 56 225 86 346 90 368 2 12 6 25 8 30 3 4 8 25 11 47 4 22 18 84 32
137 14 54 27 103 28 110 1 7 5 22 9 33 3 11 9 34 11 50 3 17 19 84 35 150 16
66 33 134 37 150 4 17 8 35 10 40 2 6 6 24 9 40 3 17 17 73 30 125 52 208 97
392 101 418 3 15 20 86 39 157 32 124 38 147 50 213 3 15 19 77 35 137 16 61
31 121 34 135 2 14 9 49 15 78 6 30 17 73 25 95 8 23 16 56 19 72 11 58 18 89
52 222 19 75 37 145 40 157 2 11 7 32 10 46 3 14 8 36 11 50 3 14 16 68 30
120 24 92 30 118 40 170 3 14 18 75 34 135 16 61 31 121 34 135 3 14 7 35 10
48 4 12 8 32 11 45 4 22 32 134 100 407 20 80 38 155 40 168 2 12 6 26 9 30 9
15 -9 30 -44 36 -19 3 -78 16 -130 30 -53 14 -107 27 -120 30 -14 2 -33 7 -42
11 -10 4 -18 3 -19 -1z"/>
</g>
</svg>
