<?xml version="1.0" ?><svg fill="none" height="40" viewBox="0 0 40 40" width="40" xmlns="http://www.w3.org/2000/svg"><path d="M7.86581 0.447266L6.13376 1.44727L14.5598 16.0417C14.3619 16.238 14.1462 16.4537 13.9079 16.692L7.62594 22.9739C4.89227 25.7076 4.89227 30.1398 7.62594 32.8734C10.3596 35.6071 14.7918 35.6071 17.5254 32.8734L21.8062 28.5927L28.1338 39.5524L29.8658 38.5524L7.86581 0.447266Z" fill="black"/><path d="M27.5644 3.31441C27.919 3.66905 28.073 4.17746 27.9746 4.66925L26.7178 10.9531L27.4249 11.6602L31.6676 7.4176L33.0818 8.83181L25.3035 16.61L26.0106 17.3171C26.4011 17.7076 27.0343 17.7076 27.4248 17.3171L31.3139 13.428L35.8301 12.5248C36.3219 12.4264 36.8303 12.5804 37.185 12.935L38.7386 14.4887L32.9653 19.2123C31.7455 20.2103 30.0532 20.399 28.6435 19.6942L27.9553 19.35L27.8486 19.7234C27.3615 21.4281 27.118 22.2804 26.7198 23.0601C26.557 23.3787 26.3754 23.6873 26.1759 23.9843C25.826 24.5053 25.4048 24.9749 24.7325 25.661L17.7793 13.6176C18.4792 13.307 19.3142 13.0685 20.7759 12.6508L21.1494 12.5441L20.8052 11.8559C20.1004 10.4461 20.289 8.7539 21.2871 7.53405L26.0107 1.76074L27.5644 3.31441Z" fill="black"/></svg>