<?xml version="1.0" ?><svg fill="none" height="40" viewBox="0 0 40 40" width="40" xmlns="http://www.w3.org/2000/svg"><path d="M37.2317 4.49969C36.4913 5.78214 35.1479 6.49947 33.7664 6.50036C33.0773 5.30374 33.0273 3.78252 33.7674 2.50067C34.5078 1.21821 35.8511 0.500883 37.2326 0.5C37.9217 1.69661 37.9718 3.21783 37.2317 4.49969Z" fill="black"/><path clip-rule="evenodd" d="M33.0615 10.7135C32.5693 12.0271 32.3346 13.6297 32.3807 15.4463C33.0777 14.8558 33.9797 14.4997 34.9648 14.4997C36.4454 14.4997 37.7381 15.3041 38.4297 16.4998C37.7381 17.6953 36.4455 18.4997 34.965 18.4997C34.0664 18.4997 33.237 18.2034 32.5693 17.7032C32.744 18.9703 33.0381 20.3133 33.4578 21.7122L31.5422 22.287C30.1447 17.6289 29.9658 13.2344 31.2025 9.97435C30.3063 10.1345 29.3508 9.99127 28.5007 9.50042C27.2184 8.7601 26.5011 7.41704 26.5 6.03574C27.6967 5.34622 29.2184 5.29597 30.5005 6.03622C31.7797 6.77478 32.4967 8.11322 32.5011 9.49106C33.4786 8.51609 34.9348 8.07423 36.3643 8.45726C37.7945 8.84047 38.835 9.95212 39.1935 11.2861C38.216 12.2618 36.7593 12.7042 35.3292 12.321C34.3674 12.0633 33.5819 11.4762 33.0615 10.7135ZM32.5012 9.49649L32.5012 9.50018L32.5023 9.50075L32.5012 9.49649Z" fill="black" fill-rule="evenodd"/><path d="M14.1642 14.8722C12.5378 13.7105 11.1276 12.4211 10.1157 11.4102C10.411 8.39997 11.9206 5.95131 13.4943 4.56836C13.4943 4.56836 14.6544 7.07845 16.6511 9.85287C16.5382 10.014 16.4313 10.1798 16.3298 10.3498C15.5425 11.6683 15.0345 13.3338 14.6404 15.198C14.4861 15.0971 14.3278 14.9891 14.1642 14.8722Z" fill="black"/><path clip-rule="evenodd" d="M18.502 32.9997C23.502 32.9997 28.002 28.9997 28.002 22.9997C28.002 21.2048 27.7564 19.9613 27.4374 18.3456C27.3012 17.6555 27.1516 16.8975 27.002 15.9997L30.002 14.9997L27.4558 13.3023C26.4452 10.7854 24.8642 8.99972 22.5019 8.99972C18.1713 8.99972 17.082 12.2412 16.1148 18.2786C15.9974 18.2195 15.8792 18.1607 15.7596 18.1013C14.9406 17.6941 14.0632 17.2578 13.0018 16.4997C9.50184 13.9997 7.00193 10.9997 7.00193 10.9997C5.00188 13.9997 4.00195 19.9997 9.00168 24.9997C9.39734 25.3954 9.78234 25.7464 10.1538 26.0578C8.10767 26.7058 5.44022 26.9997 2.00173 26.9997C2.00173 26.9997 1.33529 28.9997 3.00173 31.4997C4.66816 33.9997 7.00156 34.9997 7.00156 34.9997L13.0016 31.9997C13.0016 31.9997 15.002 32.9997 18.502 32.9997ZM27.002 15.8679C26.993 15.9206 26.9923 15.9652 27.002 15.9997V15.8679ZM24.0017 13.4997C24.0017 14.3281 23.3302 14.9997 22.5017 14.9997C21.6733 14.9997 21.0017 14.3281 21.0017 13.4997C21.0017 12.6713 21.6733 11.9997 22.5017 11.9997C23.3302 11.9997 24.0017 12.6713 24.0017 13.4997Z" fill="black" fill-rule="evenodd"/></svg>